<svg width="40" height="41" viewBox="0 0 40 41" fill="none" xmlns="http://www.w3.org/2000/svg">
<path d="M29.084 38.6285C27.2007 38.6285 25.2173 38.1785 23.1673 37.3118C21.1673 36.4618 19.1507 35.2952 17.184 33.8785C15.234 32.4452 13.3507 30.8452 11.5673 29.0952C9.80065 27.3118 8.20065 25.4285 6.78398 23.4952C5.35065 21.4952 4.20065 19.4952 3.38398 17.5618C2.51732 15.4952 2.08398 13.4952 2.08398 11.6118C2.08398 10.3118 2.31732 9.0785 2.76732 7.9285C3.23398 6.74517 3.98398 5.64517 5.00065 4.69517C6.28398 3.4285 7.75065 2.79517 9.31732 2.79517C9.96732 2.79517 10.634 2.94517 11.2007 3.21183C11.8507 3.51183 12.4007 3.96183 12.8007 4.56183L16.6673 10.0118C17.0173 10.4952 17.284 10.9618 17.4673 11.4285C17.684 11.9285 17.8007 12.4285 17.8007 12.9118C17.8007 13.5452 17.6173 14.1618 17.2673 14.7452C17.0173 15.1952 16.634 15.6785 16.1507 16.1618L15.0173 17.3452C15.034 17.3952 15.0507 17.4285 15.0673 17.4618C15.2673 17.8118 15.6673 18.4118 16.434 19.3118C17.2507 20.2452 18.0173 21.0952 18.784 21.8785C19.7673 22.8452 20.584 23.6118 21.3507 24.2452C22.3007 25.0452 22.9173 25.4452 23.284 25.6285L23.2507 25.7118L24.4673 24.5118C24.984 23.9952 25.484 23.6118 25.9673 23.3618C26.884 22.7952 28.0507 22.6952 29.2173 23.1785C29.6507 23.3618 30.1173 23.6118 30.6173 23.9618L36.1507 27.8952C36.7673 28.3118 37.2173 28.8452 37.484 29.4785C37.734 30.1118 37.8507 30.6952 37.8507 31.2785C37.8507 32.0785 37.6673 32.8785 37.3173 33.6285C36.9673 34.3785 36.534 35.0285 35.984 35.6285C35.034 36.6785 34.0007 37.4285 32.8007 37.9118C31.6507 38.3785 30.4007 38.6285 29.084 38.6285ZM9.31732 5.29517C8.40065 5.29517 7.55065 5.69517 6.73398 6.49517C5.96732 7.21183 5.43398 7.99517 5.10065 8.84517C4.75065 9.71183 4.58398 10.6285 4.58398 11.6118C4.58398 13.1618 4.95065 14.8452 5.68398 16.5785C6.43398 18.3452 7.48398 20.1785 8.81732 22.0118C10.1507 23.8452 11.6673 25.6285 13.334 27.3118C15.0007 28.9618 16.8007 30.4952 18.6507 31.8452C20.4507 33.1618 22.3007 34.2285 24.134 34.9952C26.984 36.2118 29.6507 36.4952 31.8507 35.5785C32.7007 35.2285 33.4507 34.6952 34.134 33.9285C34.5173 33.5118 34.8173 33.0618 35.0673 32.5285C35.2673 32.1118 35.3673 31.6785 35.3673 31.2452C35.3673 30.9785 35.3173 30.7118 35.184 30.4118C35.134 30.3118 35.034 30.1285 34.7173 29.9118L29.184 25.9785C28.8507 25.7452 28.5507 25.5785 28.2673 25.4618C27.9007 25.3118 27.7507 25.1618 27.184 25.5118C26.8507 25.6785 26.5507 25.9285 26.2173 26.2618L24.9507 27.5118C24.3007 28.1452 23.3007 28.2952 22.534 28.0118L22.084 27.8118C21.4007 27.4452 20.6007 26.8785 19.7173 26.1285C18.9173 25.4452 18.0507 24.6452 17.0007 23.6118C16.184 22.7785 15.3673 21.8952 14.5173 20.9118C13.734 19.9952 13.1673 19.2118 12.8173 18.5618L12.6173 18.0618C12.5173 17.6785 12.484 17.4618 12.484 17.2285C12.484 16.6285 12.7007 16.0952 13.1173 15.6785L14.3673 14.3785C14.7007 14.0452 14.9507 13.7285 15.1173 13.4452C15.2507 13.2285 15.3007 13.0452 15.3007 12.8785C15.3007 12.7452 15.2507 12.5452 15.1673 12.3452C15.0507 12.0785 14.8673 11.7785 14.634 11.4618L10.7673 5.99517C10.6007 5.76183 10.4007 5.59517 10.1507 5.4785C9.88399 5.36183 9.60065 5.29517 9.31732 5.29517ZM23.2507 25.7285L22.984 26.8618L23.434 25.6952C23.3507 25.6785 23.284 25.6952 23.2507 25.7285Z" fill="#021129"/>
<path d="M30.8333 16.962C30.15 16.962 29.5833 16.3953 29.5833 15.712C29.5833 15.112 28.9833 13.862 27.9833 12.7953C27 11.7453 25.9167 11.1287 25 11.1287C24.3167 11.1287 23.75 10.562 23.75 9.87866C23.75 9.19533 24.3167 8.62866 25 8.62866C26.6167 8.62866 28.3167 9.49533 29.8 11.0787C31.1833 12.562 32.0833 14.3787 32.0833 15.712C32.0833 16.3953 31.5167 16.962 30.8333 16.962Z" fill="#021129"/>
<path d="M36.6667 16.9618C35.9833 16.9618 35.4167 16.3952 35.4167 15.7118C35.4167 9.96183 30.75 5.29517 25 5.29517C24.3167 5.29517 23.75 4.7285 23.75 4.04517C23.75 3.36183 24.3167 2.79517 25 2.79517C32.1167 2.79517 37.9167 8.59517 37.9167 15.7118C37.9167 16.3952 37.35 16.9618 36.6667 16.9618Z" fill="#021129"/>
</svg>
