<svg width="25" height="24" viewBox="0 0 25 24" fill="none" xmlns="http://www.w3.org/2000/svg">
<path d="M8.07119 11.2H7.27119V12.8H8.07119V11.2ZM17.6712 12.8H18.4712V11.2H17.6712V12.8ZM14.4712 16H13.6712V17.6H14.4712V16ZM17.6712 17.6H18.4712V16H17.6712V17.6ZM8.07119 6.4H7.27119V8H8.07119V6.4ZM11.2712 8H12.0712V6.4H11.2712V8ZM17.6712 0.8L18.2376 0.2336L18.0024 0H17.6712V0.8ZM22.4712 5.6H23.2712V5.2688L23.0376 5.0336L22.4712 5.6ZM8.07119 12.8H17.6712V11.2H8.07119V12.8ZM14.4712 17.6H17.6712V16H14.4712V17.6ZM8.07119 8H11.2712V6.4H8.07119V8ZM20.8712 22.4H4.87119V24H20.8712V22.4ZM4.07119 21.6V2.4H2.47119V21.6H4.07119ZM4.87119 1.6H17.6712V0H4.87119V1.6ZM21.6712 5.6V21.6H23.2712V5.6H21.6712ZM17.1048 1.3664L21.9048 6.1664L23.0376 5.0336L18.2376 0.2336L17.1048 1.3664ZM4.87119 22.4C4.65902 22.4 4.45554 22.3157 4.30551 22.1657C4.15548 22.0157 4.07119 21.8122 4.07119 21.6H2.47119C2.47119 22.2365 2.72405 22.847 3.17414 23.2971C3.62422 23.7471 4.23467 24 4.87119 24V22.4ZM20.8712 24C21.5077 24 22.1182 23.7471 22.5682 23.2971C23.0183 22.847 23.2712 22.2365 23.2712 21.6H21.6712C21.6712 21.8122 21.5869 22.0157 21.4369 22.1657C21.2868 22.3157 21.0834 22.4 20.8712 22.4V24ZM4.07119 2.4C4.07119 2.18783 4.15548 1.98434 4.30551 1.83431C4.45554 1.68429 4.65902 1.6 4.87119 1.6V0C4.23467 0 3.62422 0.252856 3.17414 0.702944C2.72405 1.15303 2.47119 1.76348 2.47119 2.4H4.07119Z" fill="#101723"/>
</svg>
