<svg width="40" height="41" viewBox="0 0 40 41" fill="none" xmlns="http://www.w3.org/2000/svg">
<path d="M20.0008 24.3286C16.4508 24.3286 13.5508 21.4453 13.5508 17.8786C13.5508 14.312 16.4508 11.4453 20.0008 11.4453C23.5508 11.4453 26.4508 14.3286 26.4508 17.8953C26.4508 21.462 23.5508 24.3286 20.0008 24.3286ZM20.0008 13.9453C17.8341 13.9453 16.0508 15.712 16.0508 17.8953C16.0508 20.0786 17.8174 21.8453 20.0008 21.8453C22.1841 21.8453 23.9508 20.0786 23.9508 17.8953C23.9508 15.712 22.1674 13.9453 20.0008 13.9453Z" fill="#021129"/>
<path d="M20.0008 38.6452C17.5341 38.6452 15.0508 37.7118 13.1174 35.8618C8.20078 31.1285 2.76745 23.5785 4.81745 14.5952C6.66745 6.44517 13.7841 2.79517 20.0008 2.79517C20.0008 2.79517 20.0008 2.79517 20.0175 2.79517C26.2341 2.79517 33.3508 6.44517 35.2008 14.6118C37.2341 23.5952 31.8008 31.1285 26.8841 35.8618C24.9508 37.7118 22.4674 38.6452 20.0008 38.6452ZM20.0008 5.29517C15.1508 5.29517 8.91745 7.8785 7.26745 15.1452C5.46745 22.9952 10.4008 29.7618 14.8674 34.0452C17.7508 36.8285 22.2675 36.8285 25.1508 34.0452C29.6008 29.7618 34.5341 22.9952 32.7674 15.1452C31.1008 7.8785 24.8508 5.29517 20.0008 5.29517Z" fill="#021129"/>
</svg>
