<svg width="40" height="41" viewBox="0 0 40 41" fill="none" xmlns="http://www.w3.org/2000/svg">
<path d="M28.334 36.1285H11.6673C5.58398 36.1285 2.08398 32.6285 2.08398 26.5452V14.8785C2.08398 8.79517 5.58398 5.29517 11.6673 5.29517H28.334C34.4173 5.29517 37.9173 8.79517 37.9173 14.8785V26.5452C37.9173 32.6285 34.4173 36.1285 28.334 36.1285ZM11.6673 7.79517C6.90065 7.79517 4.58398 10.1118 4.58398 14.8785V26.5452C4.58398 31.3118 6.90065 33.6285 11.6673 33.6285H28.334C33.1007 33.6285 35.4173 31.3118 35.4173 26.5452V14.8785C35.4173 10.1118 33.1007 7.79517 28.334 7.79517H11.6673Z" fill="#021129"/>
<path d="M20 22.1619C18.6 22.1619 17.1833 21.7285 16.1 20.8452L10.8833 16.6785C10.35 16.2452 10.25 15.4619 10.6833 14.9285C11.1166 14.3952 11.9 14.2952 12.4333 14.7285L17.6499 18.8952C18.9166 19.9119 21.0666 19.9119 22.3333 18.8952L27.55 14.7285C28.0833 14.2952 28.8833 14.3785 29.3 14.9285C29.7333 15.4619 29.65 16.2619 29.1 16.6785L23.8833 20.8452C22.8166 21.7285 21.4 22.1619 20 22.1619Z" fill="#021129"/>
</svg>
